# Blender v2.80 (sub 75) OBJ File: 'Saved Games.blend'
# www.blender.org
mtllib submarine.mtl
o Cone
v 0.000000 0.164077 0.164077
v -0.032010 0.164077 0.160924
v -0.062790 0.164077 0.151588
v -0.091156 0.164077 0.136425
v -0.116020 0.164077 0.116020
v -0.136425 0.164077 0.091156
v -0.151588 0.164077 0.062790
v -0.160924 0.164077 0.032010
v -0.164077 0.164077 0.000000
v -0.160924 0.164077 -0.032010
v -0.151588 0.164077 -0.062790
v -0.136425 0.164077 -0.091156
v -0.116020 0.164077 -0.116020
v -0.091156 0.164077 -0.136425
v -0.062790 0.164077 -0.151588
v -0.032010 0.164077 -0.160924
v 0.000000 0.164077 -0.164077
v 0.032010 0.164077 -0.160924
v 0.062790 0.164077 -0.151588
v 0.091156 0.164077 -0.136425
v 0.116020 0.164077 -0.116020
v 0.136425 0.164077 -0.091156
v 0.151588 0.164077 -0.062789
v 0.000000 -0.164077 0.000000
v 0.160924 0.164077 -0.032010
v 0.164077 0.164077 0.000000
v 0.160924 0.164077 0.032010
v 0.151587 0.164077 0.062790
v 0.136425 0.164077 0.091157
v 0.116020 0.164077 0.116020
v 0.091156 0.164077 0.136425
v 0.062789 0.164077 0.151588
v 0.032010 0.164077 0.160925
vt 0.250000 0.490000
vt 0.296822 0.485388
vt 0.250000 0.250000
vt 0.341844 0.471731
vt 0.383337 0.449553
vt 0.419706 0.419706
vt 0.449553 0.383337
vt 0.471731 0.341844
vt 0.485388 0.296822
vt 0.490000 0.250000
vt 0.485388 0.203178
vt 0.471731 0.158156
vt 0.449553 0.116663
vt 0.419706 0.080294
vt 0.383337 0.050447
vt 0.341844 0.028269
vt 0.296822 0.014612
vt 0.250000 0.010000
vt 0.203178 0.014612
vt 0.158156 0.028269
vt 0.116663 0.050447
vt 0.080294 0.080294
vt 0.050447 0.116663
vt 0.028269 0.158156
vt 0.014611 0.203179
vt 0.010000 0.250000
vt 0.014612 0.296822
vt 0.028269 0.341844
vt 0.050447 0.383337
vt 0.080295 0.419706
vt 0.116663 0.449553
vt 0.158156 0.471731
vt 0.203179 0.485389
vt 0.750000 0.490000
vt 0.703179 0.485389
vt 0.658156 0.471731
vt 0.616663 0.449553
vt 0.580295 0.419706
vt 0.550447 0.383337
vt 0.528269 0.341844
vt 0.514612 0.296822
vt 0.510000 0.250000
vt 0.514611 0.203179
vt 0.528269 0.158156
vt 0.550447 0.116663
vt 0.580294 0.080294
vt 0.616663 0.050447
vt 0.658156 0.028269
vt 0.703178 0.014612
vt 0.750000 0.010000
vt 0.796822 0.014612
vt 0.841844 0.028269
vt 0.883337 0.050447
vt 0.919706 0.080294
vt 0.949553 0.116663
vt 0.971731 0.158156
vt 0.985388 0.203178
vt 0.990000 0.250000
vt 0.985388 0.296822
vt 0.971731 0.341844
vt 0.949553 0.383337
vt 0.919706 0.419706
vt 0.883337 0.449553
vt 0.841844 0.471731
vt 0.796822 0.485388
vn -0.0878 -0.4455 0.8910
vn -0.2599 -0.4455 0.8567
vn -0.4220 -0.4455 0.7896
vn -0.5680 -0.4455 0.6921
vn -0.6921 -0.4455 0.5680
vn -0.7896 -0.4455 0.4220
vn -0.8567 -0.4455 0.2599
vn -0.8910 -0.4455 0.0878
vn -0.8910 -0.4455 -0.0878
vn -0.8567 -0.4455 -0.2599
vn -0.7896 -0.4455 -0.4220
vn -0.6921 -0.4455 -0.5680
vn -0.5680 -0.4455 -0.6921
vn -0.4220 -0.4455 -0.7896
vn -0.2599 -0.4455 -0.8567
vn -0.0878 -0.4455 -0.8910
vn 0.0878 -0.4455 -0.8910
vn 0.2599 -0.4455 -0.8567
vn 0.4220 -0.4455 -0.7896
vn 0.5680 -0.4455 -0.6921
vn 0.6921 -0.4455 -0.5680
vn 0.7896 -0.4455 -0.4220
vn 0.8567 -0.4455 -0.2599
vn 0.8910 -0.4455 -0.0878
vn 0.8910 -0.4455 0.0878
vn 0.8567 -0.4455 0.2599
vn 0.7896 -0.4455 0.4220
vn 0.6921 -0.4455 0.5680
vn 0.5680 -0.4455 0.6921
vn 0.4220 -0.4455 0.7896
vn 0.2599 -0.4455 0.8567
vn 0.0878 -0.4455 0.8910
vn 0.0000 1.0000 0.0000
usemtl None
s off
f 1/1/1 2/2/1 24/3/1
f 2/2/2 3/4/2 24/3/2
f 3/4/3 4/5/3 24/3/3
f 4/5/4 5/6/4 24/3/4
f 5/6/5 6/7/5 24/3/5
f 6/7/6 7/8/6 24/3/6
f 7/8/7 8/9/7 24/3/7
f 8/9/8 9/10/8 24/3/8
f 9/10/9 10/11/9 24/3/9
f 10/11/10 11/12/10 24/3/10
f 11/12/11 12/13/11 24/3/11
f 12/13/12 13/14/12 24/3/12
f 13/14/13 14/15/13 24/3/13
f 14/15/14 15/16/14 24/3/14
f 15/16/15 16/17/15 24/3/15
f 16/17/16 17/18/16 24/3/16
f 17/18/17 18/19/17 24/3/17
f 18/19/18 19/20/18 24/3/18
f 19/20/19 20/21/19 24/3/19
f 20/21/20 21/22/20 24/3/20
f 21/22/21 22/23/21 24/3/21
f 22/23/22 23/24/22 24/3/22
f 23/24/23 25/25/23 24/3/23
f 25/25/24 26/26/24 24/3/24
f 26/26/25 27/27/25 24/3/25
f 27/27/26 28/28/26 24/3/26
f 28/28/27 29/29/27 24/3/27
f 29/29/28 30/30/28 24/3/28
f 30/30/29 31/31/29 24/3/29
f 31/31/30 32/32/30 24/3/30
f 32/32/31 33/33/31 24/3/31
f 33/33/32 1/1/32 24/3/32
f 1/34/33 33/35/33 32/36/33 31/37/33 30/38/33 29/39/33 28/40/33 27/41/33 26/42/33 25/43/33 23/44/33 22/45/33 21/46/33 20/47/33 19/48/33 18/49/33 17/50/33 16/51/33 15/52/33 14/53/33 13/54/33 12/55/33 11/56/33 10/57/33 9/58/33 8/59/33 7/60/33 6/61/33 5/62/33 4/63/33 3/64/33 2/65/33
